PathFileType	4	(X/Y/Z)	/home/abdul/Desktop/myosuite/custom_workspace/IK/output/01_12_1.trc
DataRate	CameraRate	NumFrames	NumMarkers	Units	OrigDataRate	OrigDataStartFrame	OrigNumFrames
200.0	200.0	45	3	mm	200.0	1115	1486
Frame#	Time	V_Shoulder			V_Elbow			V_Wrist		
		X1	Y1	Z1	X2	Y2	Z2	X3	Y3	Z3

1115	5.57	27.53260537521214	756.0569434991777	301.2810483574497	-41.915953828606035	538.9028070286683	77.99936825415018	-32.41767637444468	299.97229943040816	50.98765123758663
1116	5.575	27.533173369006686	756.0905123786125	301.28948383740925	-41.884351609810736	538.8353864736396	78.0647895686883	-32.445504888216426	299.90710732809856	50.96108553661574
1117	5.58	27.53409221114737	756.1284198993131	301.29852921814495	-41.85684468344506	538.7730267964337	78.12932413001073	-32.47429430721776	299.8458206699575	50.93682588509847
1118	5.585	27.535390358264667	756.17082887795	301.3082549485368	-41.833757216058096	538.7162895094618	78.19276922565983	-32.50412330042391	299.78897928055005	50.91503943879804
1119	5.59	27.537094880532816	756.2179080938662	301.31873203508746	-41.81541730113996	538.6657641265701	78.25490732416058	-32.53506137211576	299.73715481423596	50.89589519464421
1120	5.595	27.539231382742756	756.269832007306	301.330031904583	-41.80215593630636	538.6220676866672	78.31550609469518	-32.56716818191184	299.69095048102946	50.87956334654345
1121	5.6	27.54182393143779	756.3267804545012	301.3422262627801	-41.794305966195715	538.5858441824455	78.3743184804917	-32.60049289125777	299.65100067153026	50.86621461924609
1122	5.605	27.544894988406245	756.3889383198901	301.3553869491024	-41.79220099394388	538.5577638930808	78.43108282655197	-32.63507353958787	299.6179704788546	50.856019582431884
1123	5.61	27.54846535079321	756.4564951858644	301.36958578733345	-41.796174264313926	538.5385226201051	78.48552306217297	-32.67093645333655	299.5925551157894	50.84914794734283
1124	5.615	27.55255409806185	756.5296449605256	301.38489443231214	-41.806557521762414	538.5288408259811	78.5373489385454	-32.70809569092615	299.5754792257091	50.84576784844303
1125	5.62	27.557178546005087	756.6085854840484	301.4013842126446	-41.8236798469188	538.5294626752609	78.58625632154217	-32.74655252679228	299.56749608613126	50.8460451127188
1126	5.625	27.562354207980302	756.6935181143521	301.41912596946617	-41.84786647513947	538.5411549785629	78.6319275396362	-32.78629497742769	299.5693867041432	50.850142519347415
1127	5.63	27.568094763512207	756.7846472928887	301.4381898913036	-41.879437600972786	538.5647060399845	78.67403178671212	-32.827297372331664	299.5819588033057	50.85821905256138
1128	5.635	27.574412034381794	756.8821800914711	301.4586453451095	-41.918707172534795	538.6009244089474	78.71222557935991	-32.86951997264228	299.60604570203407	50.87042915061624
1129	5.64	27.581315968291076	756.9863257411588	301.48056070356665	-41.96598167994756	538.6506375378681	78.74615326806037	-32.912908640102835	299.642505083866	50.88692195383547
1130	5.645	27.588814630164013	757.0972951443446	301.5040031687877	-42.02155894213239	538.7146903474495	78.77544760149445	-32.95739455886965	299.69221766044734	50.907840554755225
1131	5.65	27.59691420111425	757.2153003712729	301.52903859257026	-42.085726896377196	538.7939437017969	78.79973034302819	-33.00289401250531	299.7560857284984	50.933321253424666
1132	5.655	27.605618985079357	757.3405541423344	301.5557312934033	-42.15876239521003	538.8892727959678	78.81861293824484	-33.04930821831715	299.83503162246404	50.96349282093453
1133	5.66	27.614931423091054	757.473269297568	301.5841438704572	-42.240930015206686	539.0015654589788	78.83169723221305	-33.09652322099754	299.9299960649921	50.99847577424721
1134	5.665	27.62485211512102	757.6136582548983	301.61433701483196	-42.33248088243901	539.1317203756983	78.83857623499706	-33.14440984729798	300.0419364178317	51.03838166538554
1135	5.67	27.63537984941254	757.7619324587149	301.6463693183755	-42.433651519329786	539.2806452314533	78.83883493373199	-33.19282372322698	300.17182483618456	51.0833123880079
1136	5.675	27.6465116391788	757.9183018204661	301.6802970804201	-42.544662717720556	539.4492547835775	78.83205114940368	-33.24160535500115	300.32064632998936	51.13335950435173
1137	5.68	27.658242766518057	758.0829741530027	301.7161741128294	-42.66571844297984	539.6384688645064	78.81779643629308	-33.29058027470286	300.48939673606174	51.188603595470745
1138	5.685	27.670566833363434	758.2561546004536	301.7540515437851	-42.7970047739812	539.8492103214057	78.79563702186564	-33.339559251307826	300.67908060544846	51.249113637619615
1139	5.69	27.68347581924984	758.4380450654525	301.7939776207846	-42.93868888376295	540.0824028976674	78.76513478471367	-33.38833856744498	300.8907090107907	51.31494640755723
1140	5.695	27.69696014564289	758.6288436355611	301.8359975133664	-43.09091806564344	540.3389690619528	78.72584826798942	-33.436700361940076	301.12529727891683	51.38614591944423
1141	5.7	27.71100874653584	758.828744010747	301.8801531161264	-43.2538188095072	540.6198277907799	78.67733372560512	-33.484413037876934	301.38386265429864	51.46274289590507
1142	5.705	27.72560914498095	759.037934933779	301.9264828526306	-43.42749593289488	540.9258923109521	78.61914619832031	-33.53123173558606	301.6674218994067	51.544754275709536
1143	5.71	27.74074753518254	759.2565996253992	301.975021480886	-43.612031771423965	541.258067808398	78.55084061669014	-33.57689886964124	301.9769888383819	51.63218276040561
1144	5.715	27.756408869740152	759.4849152261127	302.02579990107324	-43.80748543293309	541.6172491102423	78.47197292771025	-33.6211447286108	302.3135718508037	51.725016402104515
1145	5.72	27.77257695159183	759.7230522464093	302.07884496630135	-44.01389211957935	542.0043183471481	78.38210124186757	-33.66368813597305	302.67817132267294	51.82322823447926
1146	5.725	27.789234530169903	759.9711740272052	302.1341792971894	-44.23126252192327	542.4201426031609	78.28078699719362	-33.70423717026614	303.07177706204595	51.926775948890345
1147	5.73	27.806363401246376	760.2294362122406	302.1918211011289	-44.45958228880882	542.8655715604568	78.16759613682103	-33.74248994220234	303.4953656870416	52.03560161739417
1148	5.735	27.823944509914156	760.4979862341352	302.2517839971181	-44.69881157658713	543.3414351465252	78.04210029646603	-33.77813542613975	303.9498979942023	52.149631464222196
1149	5.74	27.84195805612435	760.7769628157345	302.3140768470974	-44.948884680943415	543.8485411914266	77.90387799819908	-33.81085434297299	304.43631631541723	52.26877568714117
1150	5.745	27.860383602180175	761.0664954883329	302.3787035947344	-45.20970975426907	544.3876731028354	77.7525158468232	-33.840320091182704	304.9555418718161	52.39292832991784
1151	5.75	27.87920018157352	761.366704128288	302.44566311262935	-45.481168611176926	544.959587566615	77.58760972515165	-33.86619972247697	305.50847213319696	52.521967206915846
1152	5.755	27.8983864085409	761.6776985134737	302.5149490589196	-45.763116624388054	545.5650122806785	77.40876598446181	-33.888154958168236	306.095978191687	52.65575388065005
1153	5.76	27.9179205877106	761.9995779009423	302.58654974426184	-46.055382712825974	546.2046437298467	77.21560262640196	-33.905843242162845	306.7189021584203	52.79413369291437
1154	5.765	27.93778082321211	762.3324306271052	302.6604480101623	-46.35776942333934	546.8791450093535	77.00775047263824	-33.91891882619868	307.3780545920753	52.93693584988575
1155	5.77	27.957945126621865	762.6763337316496	302.73662111961335	-46.670053107040104	547.5891437045411	76.78485431855495	-33.92703388275361	308.0742119681279	53.08397356138897
1156	5.775	27.978391523126167	763.0313526063464	302.81504066096664	-46.99198419079237	548.3352298341547	76.54657406736169	-33.92983964086441	308.80811419765905	53.2350442342871
1157	5.78	27.999098155293296	763.397540669826	302.89567246594794	-47.323287543920536	549.1179538644833	76.29258584101812	-33.92698753994456	309.580462204497	53.38992971974065
1158	5.785	28.020043383863776	763.7749390693134	302.9784765426726	-47.66366293972659	549.937824801407	76.02258306446244	-33.918130396570234	310.3919155693766	53.54839661385733
1159	5.79	28.041205884990205	764.1635764102471	303.06340702447784	-48.012785610919835	550.7953083671939	75.73627751972174	-33.90292357911702	311.2430902496669	53.71019661103405
